<mxfile host="app.diagrams.net" agent="Mozilla/5.0 (X11; Linux x86_64) AppleWebKit/537.36 (KHTML, like Gecko) Chrome/134.0.0.0 Safari/537.36" version="26.2.9">
  <diagram name="第 1 页" id="Wv4TLXLrrT8Sji3ovqfJ">
    <mxGraphModel dx="2626" dy="1483" grid="1" gridSize="10" guides="1" tooltips="1" connect="1" arrows="1" fold="1" page="1" pageScale="1" pageWidth="827" pageHeight="1169" math="0" shadow="0">
      <root>
        <mxCell id="0" />
        <mxCell id="1" parent="0" />
        <mxCell id="OBa55_lAPP8kNcYog8_h-1" value="" style="rounded=0;whiteSpace=wrap;html=1;dashed=1;" vertex="1" parent="1">
          <mxGeometry x="100" y="77" width="140" height="263" as="geometry" />
        </mxCell>
        <mxCell id="OBa55_lAPP8kNcYog8_h-2" value="" style="rounded=0;whiteSpace=wrap;html=1;" vertex="1" parent="1">
          <mxGeometry x="120" y="98" width="100" height="40" as="geometry" />
        </mxCell>
        <mxCell id="OBa55_lAPP8kNcYog8_h-3" value="内存" style="rounded=1;whiteSpace=wrap;html=1;" vertex="1" parent="1">
          <mxGeometry x="170" y="108" width="40" height="20" as="geometry" />
        </mxCell>
        <mxCell id="OBa55_lAPP8kNcYog8_h-4" value="" style="rounded=0;whiteSpace=wrap;html=1;" vertex="1" parent="1">
          <mxGeometry x="120" y="170" width="100" height="60" as="geometry" />
        </mxCell>
        <mxCell id="OBa55_lAPP8kNcYog8_h-5" value="应用" style="text;html=1;align=center;verticalAlign=middle;whiteSpace=wrap;rounded=0;" vertex="1" parent="1">
          <mxGeometry x="110" y="103" width="60" height="30" as="geometry" />
        </mxCell>
        <mxCell id="OBa55_lAPP8kNcYog8_h-6" value="内核" style="text;html=1;align=center;verticalAlign=middle;resizable=0;points=[];autosize=1;strokeColor=none;fillColor=none;" vertex="1" parent="1">
          <mxGeometry x="115" y="185" width="50" height="30" as="geometry" />
        </mxCell>
        <mxCell id="OBa55_lAPP8kNcYog8_h-7" value="" style="rounded=0;whiteSpace=wrap;html=1;" vertex="1" parent="1">
          <mxGeometry x="120" y="270" width="105" height="40" as="geometry" />
        </mxCell>
        <mxCell id="OBa55_lAPP8kNcYog8_h-8" value="内存" style="rounded=1;whiteSpace=wrap;html=1;" vertex="1" parent="1">
          <mxGeometry x="170" y="280" width="40" height="20" as="geometry" />
        </mxCell>
        <mxCell id="OBa55_lAPP8kNcYog8_h-9" value="" style="shape=flexArrow;endArrow=classic;startArrow=classic;html=1;rounded=0;endWidth=10.980392156862745;endSize=4.125490196078432;startWidth=10.980392156862745;startSize=4.125490196078432;entryX=0.5;entryY=1;entryDx=0;entryDy=0;" edge="1" parent="1" target="OBa55_lAPP8kNcYog8_h-3">
          <mxGeometry width="100" height="100" relative="1" as="geometry">
            <mxPoint x="190" y="190" as="sourcePoint" />
            <mxPoint x="199.57" y="210" as="targetPoint" />
          </mxGeometry>
        </mxCell>
        <mxCell id="OBa55_lAPP8kNcYog8_h-10" value="" style="rounded=0;whiteSpace=wrap;html=1;dashed=1;" vertex="1" parent="1">
          <mxGeometry x="340" y="77" width="140" height="263" as="geometry" />
        </mxCell>
        <mxCell id="OBa55_lAPP8kNcYog8_h-11" value="" style="rounded=0;whiteSpace=wrap;html=1;" vertex="1" parent="1">
          <mxGeometry x="360" y="98" width="100" height="40" as="geometry" />
        </mxCell>
        <mxCell id="OBa55_lAPP8kNcYog8_h-12" value="内存" style="rounded=1;whiteSpace=wrap;html=1;" vertex="1" parent="1">
          <mxGeometry x="410" y="108" width="40" height="20" as="geometry" />
        </mxCell>
        <mxCell id="OBa55_lAPP8kNcYog8_h-13" value="" style="rounded=0;whiteSpace=wrap;html=1;" vertex="1" parent="1">
          <mxGeometry x="360" y="170" width="100" height="60" as="geometry" />
        </mxCell>
        <mxCell id="OBa55_lAPP8kNcYog8_h-14" value="应用" style="text;html=1;align=center;verticalAlign=middle;whiteSpace=wrap;rounded=0;" vertex="1" parent="1">
          <mxGeometry x="355" y="103" width="60" height="30" as="geometry" />
        </mxCell>
        <mxCell id="OBa55_lAPP8kNcYog8_h-15" value="内核" style="text;html=1;align=center;verticalAlign=middle;resizable=0;points=[];autosize=1;strokeColor=none;fillColor=none;" vertex="1" parent="1">
          <mxGeometry x="360" y="185" width="50" height="30" as="geometry" />
        </mxCell>
        <mxCell id="OBa55_lAPP8kNcYog8_h-16" value="" style="rounded=0;whiteSpace=wrap;html=1;" vertex="1" parent="1">
          <mxGeometry x="360" y="270" width="100" height="40" as="geometry" />
        </mxCell>
        <mxCell id="OBa55_lAPP8kNcYog8_h-17" value="内存" style="rounded=1;whiteSpace=wrap;html=1;" vertex="1" parent="1">
          <mxGeometry x="410" y="280" width="40" height="20" as="geometry" />
        </mxCell>
        <mxCell id="OBa55_lAPP8kNcYog8_h-19" value="" style="shape=flexArrow;endArrow=classic;startArrow=classic;html=1;rounded=0;" edge="1" parent="1">
          <mxGeometry width="100" height="100" relative="1" as="geometry">
            <mxPoint x="240" y="289.5" as="sourcePoint" />
            <mxPoint x="340" y="290" as="targetPoint" />
          </mxGeometry>
        </mxCell>
        <mxCell id="OBa55_lAPP8kNcYog8_h-20" value="TCP/IP" style="text;html=1;align=center;verticalAlign=middle;resizable=0;points=[];autosize=1;strokeColor=none;fillColor=none;" vertex="1" parent="1">
          <mxGeometry x="260" y="260" width="60" height="30" as="geometry" />
        </mxCell>
        <mxCell id="OBa55_lAPP8kNcYog8_h-21" value="主机A" style="text;html=1;align=center;verticalAlign=middle;resizable=0;points=[];autosize=1;strokeColor=none;fillColor=none;" vertex="1" parent="1">
          <mxGeometry x="140" y="38" width="60" height="30" as="geometry" />
        </mxCell>
        <mxCell id="OBa55_lAPP8kNcYog8_h-22" value="主机B" style="text;html=1;align=center;verticalAlign=middle;resizable=0;points=[];autosize=1;strokeColor=none;fillColor=none;" vertex="1" parent="1">
          <mxGeometry x="385" y="38" width="60" height="30" as="geometry" />
        </mxCell>
        <mxCell id="OBa55_lAPP8kNcYog8_h-23" value="内存" style="rounded=1;whiteSpace=wrap;html=1;" vertex="1" parent="1">
          <mxGeometry x="170" y="190" width="40" height="20" as="geometry" />
        </mxCell>
        <mxCell id="OBa55_lAPP8kNcYog8_h-24" value="" style="shape=flexArrow;endArrow=classic;startArrow=classic;html=1;rounded=0;endWidth=10.980392156862745;endSize=4.125490196078432;startWidth=10.980392156862745;startSize=4.125490196078432;entryX=0.5;entryY=1;entryDx=0;entryDy=0;exitX=0.5;exitY=0;exitDx=0;exitDy=0;" edge="1" parent="1" source="OBa55_lAPP8kNcYog8_h-8">
          <mxGeometry width="100" height="100" relative="1" as="geometry">
            <mxPoint x="189.5" y="272" as="sourcePoint" />
            <mxPoint x="189.5" y="210" as="targetPoint" />
          </mxGeometry>
        </mxCell>
        <mxCell id="OBa55_lAPP8kNcYog8_h-25" value="" style="shape=flexArrow;endArrow=classic;startArrow=classic;html=1;rounded=0;endWidth=10.980392156862745;endSize=4.125490196078432;startWidth=10.980392156862745;startSize=4.125490196078432;entryX=0.5;entryY=1;entryDx=0;entryDy=0;" edge="1" parent="1">
          <mxGeometry width="100" height="100" relative="1" as="geometry">
            <mxPoint x="430" y="190" as="sourcePoint" />
            <mxPoint x="430" y="128" as="targetPoint" />
          </mxGeometry>
        </mxCell>
        <mxCell id="OBa55_lAPP8kNcYog8_h-26" value="内存" style="rounded=1;whiteSpace=wrap;html=1;" vertex="1" parent="1">
          <mxGeometry x="410" y="190" width="40" height="20" as="geometry" />
        </mxCell>
        <mxCell id="OBa55_lAPP8kNcYog8_h-27" value="" style="shape=flexArrow;endArrow=classic;startArrow=classic;html=1;rounded=0;endWidth=10.980392156862745;endSize=4.125490196078432;startWidth=10.980392156862745;startSize=4.125490196078432;entryX=0.5;entryY=1;entryDx=0;entryDy=0;exitX=0.5;exitY=0;exitDx=0;exitDy=0;" edge="1" parent="1">
          <mxGeometry width="100" height="100" relative="1" as="geometry">
            <mxPoint x="430" y="280" as="sourcePoint" />
            <mxPoint x="429.5" y="210" as="targetPoint" />
          </mxGeometry>
        </mxCell>
        <mxCell id="OBa55_lAPP8kNcYog8_h-28" value="网卡" style="text;html=1;align=center;verticalAlign=middle;resizable=0;points=[];autosize=1;strokeColor=none;fillColor=none;" vertex="1" parent="1">
          <mxGeometry x="115" y="275" width="50" height="30" as="geometry" />
        </mxCell>
        <mxCell id="OBa55_lAPP8kNcYog8_h-29" value="网卡" style="text;html=1;align=center;verticalAlign=middle;resizable=0;points=[];autosize=1;strokeColor=none;fillColor=none;" vertex="1" parent="1">
          <mxGeometry x="360" y="275" width="50" height="30" as="geometry" />
        </mxCell>
      </root>
    </mxGraphModel>
  </diagram>
</mxfile>
